<svg width="24" height="24" viewBox="0 0 24 24" fill="none" xmlns="http://www.w3.org/2000/svg">
<rect width="24" height="24" rx="12" fill="#181818"/>
<path d="M21.1639 17.7108C21.1639 18.3772 20.7926 19.6606 19.9585 20.3655C19.7916 20.4938 19.6248 20.4214 19.6981 20.2344C19.941 19.6404 20.4965 18.2663 20.2362 17.9501C20.052 17.7099 19.2911 17.7282 18.6421 17.7832C18.346 17.8208 18.0857 17.8382 17.884 17.8795C17.697 17.8942 17.6595 17.7301 17.8465 17.6017C18.09 17.4298 18.3591 17.2974 18.644 17.2094C19.6981 16.8941 20.9164 17.0838 21.0915 17.2855C21.1245 17.324 21.1639 17.4331 21.1639 17.7108ZM19.402 18.8961C19.1603 19.0809 18.9064 19.2494 18.6421 19.4002C16.697 20.569 14.177 21.1813 11.989 21.1813C8.46621 21.1813 5.31562 19.8824 2.92496 17.709C2.71962 17.5422 2.88921 17.3002 3.12937 17.4312C5.70521 18.9346 8.89337 19.8439 12.1934 19.8439C14.2705 19.8439 16.509 19.4553 18.6421 18.6193C18.7915 18.5633 18.9584 18.4872 19.1041 18.4341C19.4405 18.2828 19.7366 18.6559 19.402 18.8961ZM13.7462 8.78525C13.7462 7.831 13.7847 7.26908 13.4685 6.78692C13.188 6.39 12.7049 6.15167 12.0302 6.18925C11.2987 6.22958 10.5131 6.709 10.3133 7.58808C10.2739 7.78975 10.1565 7.98775 9.91271 8.03083L7.68062 7.74667C7.52112 7.71 7.27821 7.58808 7.35796 7.26908C7.83737 4.74733 9.99246 3.86825 12.0311 3.75H12.5096C13.628 3.75 15.0653 4.06992 15.9847 4.90867C17.1003 5.95 16.9811 7.34883 16.9811 8.86867V12.4684C16.9811 13.5482 17.4193 14.0267 17.8593 14.5896C17.9785 14.7903 18.0197 15.0268 17.819 15.19C17.2415 15.7049 16.6556 16.2103 16.0617 16.7062C15.9013 16.8281 15.6135 16.8409 15.5025 16.7474C14.7967 16.1562 14.6244 15.828 14.1871 15.2276C13.4263 16.026 12.7874 16.4669 12.0275 16.7062C11.493 16.8418 10.9435 16.9083 10.3921 16.9042C8.47629 16.9042 6.95921 15.7097 6.95921 13.3475C6.95921 11.4692 7.95837 10.1923 9.43421 9.58825C10.91 8.98325 13.055 8.79075 13.7462 8.78708M13.309 13.5464C13.7856 12.7471 13.7462 12.0926 13.7462 10.6268C13.1485 10.6268 12.549 10.6681 12.0311 10.79C11.0732 11.0677 10.3124 11.67 10.3124 12.9487C10.3124 13.9479 10.833 14.6281 11.7112 14.6281C11.8322 14.6281 11.9385 14.6134 12.0302 14.5868C12.6444 14.4163 13.0275 14.1083 13.309 13.5464Z" fill="#F9F8F8"/>
</svg>
